# xmcd
# Track frame offsets:
# 150
# 15937
# 29999
# 44586
# 59398
# 76535
# 89397
# 105259
# 126671
# 142008
# 157420
# 172757
# 190194
# 205906
# 224618
# 242130
# 258734
# 274446
# 286258
#
# Disc length: 3991 seconds
# Revision: 3
# Processed by: cddbd v1.5.2PL0 Copyright (c) Steve Scherf et al.
# Submitted via: VisiTrax 2.10.3.257 - For more info visit www.synapsa.com
#
DISCID=230f9513
DTITLE=Various Artist - Promo Country May 2010
DYEAR=2010
DGENRE=Country
TTITLE0=Toby Keith - Every Dog Has Its Day
TTITLE1=George Strait - Gotta Get To You
TTITLE2=Trailer Choir - Rollin' Through The Sunshine
TTITLE3=Bucky Covington - A Father's Love @ (The Only Way He Knew How)
TTITLE4=Josh Thompson - Way Out Here
TTITLE5=Little Big Town - Little White Church
TTITLE6=Brad Paisley - Water
TTITLE7=Eli Young Band - Guinevere
TTITLE8=Kellie Pickler - Makin' Me Fall In Love Again
TTITLE9=Lonestar - You're The Reason Why
TTITLE10=Ward Davis - Don't Open That Door @
TTITLE11=Gary Allan - Get Off On The Pain
TTITLE12=Chris Janson - Til A Woman Comes Along @
TTITLE13=Randy Montana - Ain't Much Left Of Lovin' You @
TTITLE14=Williams Riley - Sweet September
TTITLE15=Sarah Darling - Whenever It Rains
TTITLE16=Jake Owen - Tell Me
TTITLE17=Johnny Patton - Keep This Country Alive
TTITLE18=Easton Corbin - A Little More Country Than That (Acoustic)
EXTD=
EXTT0=
EXTT1=
EXTT2=
EXTT3=
EXTT4=
EXTT5=
EXTT6=
EXTT7=
EXTT8=
EXTT9=
EXTT10=
EXTT11=
EXTT12=
EXTT13=
EXTT14=
EXTT15=
EXTT16=
EXTT17=
EXTT18=
PLAYORDER=
